/* XPM */
static char *_0f15f7810084c06934e5dbdebb7f437H853ybOJSa4GNP3Q[] = {
/* columns rows colors chars-per-pixel */
"64 64 85 1 ",
"  c #A2A3A5",
". c #A3A4A6",
"X c #A4A5A7",
"o c #A5A6A8",
"O c #A6A7A9",
"+ c #A7A8AA",
"@ c #A8A9AB",
"# c #A9AAAC",
"$ c #AAABAD",
"% c #ABACAE",
"& c #ACADAF",
"* c #ADAEB0",
"= c #AEAFB1",
"- c #AFB0B2",
"; c #B0B1B3",
": c #B1B2B4",
"> c #B2B3B5",
", c #B3B4B6",
"< c #B4B5B7",
"1 c #B5B6B8",
"2 c #B6B7B9",
"3 c #B7B8BA",
"4 c #B8B9BB",
"5 c #B9BABC",
"6 c #BABBBD",
"7 c #BBBCBE",
"8 c #BCBDBF",
"9 c #BDBEC0",
"0 c #BEBFC1",
"q c #BFC0C2",
"w c #C0C1C3",
"e c #C1C2C4",
"r c #C2C3C5",
"t c #C3C4C6",
"y c #C4C5C7",
"u c #C5C6C8",
"i c #C6C7C9",
"p c #C7C8CA",
"a c #C8C9CB",
"s c #C9CACC",
"d c #CACBCD",
"f c #CBCCCE",
"g c #CCCDCF",
"h c #CDCED0",
"j c #CECFD1",
"k c #CFD0D2",
"l c #D0D1D3",
"z c #D1D2D4",
"x c #D2D3D5",
"c c #D3D4D6",
"v c #D4D5D7",
"b c #D5D6D8",
"n c #D6D7D9",
"m c #D7D8DA",
"M c #D8D9DB",
"N c #D9DADC",
"B c #DADBDD",
"V c #DBDCDE",
"C c #DCDDDF",
"Z c #DDDEE0",
"A c #DEDFE1",
"S c #DFE0E2",
"D c #E0E1E3",
"F c #E1E2E4",
"G c #E2E3E5",
"H c #E3E4E6",
"J c #E4E5E7",
"K c #E5E6E8",
"L c #E6E7E9",
"P c #E7E8EA",
"I c #E8E9EB",
"U c #E9EAEC",
"Y c #EAEBED",
"T c #EBECEE",
"R c #ECEDEF",
"E c #EDEEF0",
"W c #EEEFF1",
"Q c #EFF0F2",
"! c #F0F1F3",
"~ c #F1F2F4",
"^ c #F2F3F5",
"/ c #F3F4F6",
"( c #F4F5F7",
") c #F5F6F8",
"_ c #F6F7F9",
/* pixels */
"   ...XXXXooooo++o+o@+++@%;6sNU~/QJnu3=#@++++oo+ooooooXoXX. ....",
".XXXoooooo+oo@++++@@@@@+#=:7sNJRQUGcu6-=##@@@#@+@++++ooooooXXXX.",
"ooooooo+@++@@#@#######%#&;20snDPIJZzu6:-%########@@@#++++o+ooooo",
"++++++#@@#####%#%#&#%%&==:40svZGHGNky7<;=&&#%%%%#%######@@@@+@++",
"@#######%#%#%%%%&&&=&==-;,60azNZZCvjy72:;===&&%%=##%%#####%#####",
"%%&#%%&#&%&&=%%====--=-::26waknNVNzgy03,::=-=-=====&%=&%%%%#%%%&",
"==&===&===-==---:;;;;;:<<27eujzmnvlse042,::;;;;;-----===========",
";---=----;;;;;;:::::,:,<267epgzzczjay042<<:,::::::;;;;;--=-==;;:",
",,:::::::,:,::,::,,:<<<2260epsjkljfpt07322,,,,,:,:,:,:,::,::,:,<",
"322<<,2<<,,<2,,2<<<2<223660tusgjjgfueq7632<2<2<<<<<,<<<<<<<<2<23",
"66634322222222233222334467qeusggjgsuyw07634332233322233342443666",
"00876664344433344443466680wtussgsssueq076664444344334444466778qq",
"eeq0078666666646666667780qetussffsauteq077666666666666667870qweu",
"sutewwq080888887878078000weypasssssuueww00088888888888000qwweuua",
"fspuyeewwq00800000000qwqwtuupasffsspuuee0qq000800000qqqewetyupsj",
"kjsauuyyeeeewqqqqq0qweeeeuuuasssssspuuyeeeww0qqqqwwweeeetyypasjj",
"cljfsapuuytyeteteeetettyuuupassffsssauuuyyyeteteeeteyyyuuaasjjlz",
"nczkjfssppuuyyyyyuyuuyuuupaassgssfssappuuuuuyyyuuyyuuupasssjjzvm",
"NmvzljgfssapaappuupupuuassfsffffgffsssaappuuupuppappaassgjjlzvmN",
"CNmnzzkjgffssssssaapaaaassfggggggggfgsfsasaaaaasssssffgjjklcnMNZ",
"SZNmnzzzzkjjjsfffsssssfssggfgjgjjjgjfgfssssssgssffsgjjklzzcnmNCZ",
"DZVNmnvczzlkjjgggffffffgggjjjkkkjkjjjjgfgffgffgggjjjkkzzvvnMNZZG",
"GSZVNNmncczzklkjjjjggjjglkkkllzzzzzlkkjjkjjgjjjjjkllzzcnnmMNCSDG",
"GGSZZNNmnnnvzzzzlkllklzlzzlzzzczzczzlllllllkkllzlzzcznnnMNVCZZGH",
"JGGZZCNNMmnnccczzczzzzzzzzczzcvvnczczczzzzzzzzcccccvnnmNNVZZSGDJ",
"JHGGDZZCNNmnnnnvnzccccnzvcvnvvvvvvvvnzcccccccvvvnnnmnMNNVCZSDGHK",
"KJGGSSZZCNNNMMmmnnnvnvvnvvnnnnnnnnnnnnnvnvcnnnvnnmNNNNNZZZGSGHJK",
"KJGGGDDZZCVVVNNMmmmnnnnnmmmnmMMMMMmmnmmmmnnnnnmMMNNNVCCSZDSGHKKK",
"KKHHGGSSZSCCVVNNNMMMMNMMMMMMNNNNNNMNNNNMmmMMMNMNNNVVCZZZSSGGHJKK",
"KKJHGGGSDDSZZCCVVNVNVNVNCVVVCNVNNNVCVVVVVNNVNVVVCCCZSZSDDGGHHJKP",
"KKJJGGGGDDSDZZZCZZVCVVVVCZCCCCVCCVCCVVCVVVVVCCCZZZZZSSSGGGGHJJKK",
"KJJJGGHGGDGZDZDZZZCZZCCZZZZZZSZZZZDZZSZZCCCZZZSZSSSDDSGGHGHHKJKJ",
"JJJJJHHHGGDGDDDZSSDZSZZSSSDZSSDZZDZDSSDSSZZZZDSSSDGDGGGGHHGJJJJJ",
"JJJJJJJHGHGHGGGGGDGSDSGSGDGGGDGGDGGDGDGDSGGDDDDDGDGGHHGHHJJJKJKK",
"HJJJJJJJHHHHHHGGGDGDGGGGGGHGDDGDGGDGGGGDGGGGGGGGGGGGHHHHJJJKJHJJ",
"HJJHJJJJJJJJJHHGGHHGGGHHHGHHGGHHHGGGGHGGHHGHHHGHHHHHJJJKJJJJKJJH",
"HJJHJJJJKKJJJHHHJJJHJJJKHHHHJJJJKJJJJJHHJJJJJHJKJJJJKKKKJJJJKJJH",
"HJJJJJJKKKKKJJKKKJJKKKJKKKKKKKKKPKJKKKKKKKJJKJKJKJJKKKKKKJJKJJJH",
"HJJJJKKKPKKPKPKPKKKPKKIKPKKPKKKPPKKPPKKPKIIKKKKPKKPKKPKKKIKKKJJJ",
"HJJJKKKPKPKPKPPPPPKPPIIPPPPPPPIIIUPPPPPPPUIPPPPPIIPPPKPPKPPKJJJH",
"HHJJKKPKPKPPPPPPPPPIIUIIUIIIIIUIUUPIIIIIIIUIPIIPPPPPIKKIPKKKKJKH",
"HJJKKKKPKKPPPPPPIPITUUUIUUUUUUUUUUUUUUUUUIUUUUUUIIPPPPPKPPPKKJJH",
"HHHKKKKPKIIIUIIIIUUUTUUUTTTUUUTURUUTUTUTUUUTUTTUUIIIIIIPPKPPKJJH",
"HJJKPIKPPIIIUUUUURTTUTTERTTTRTTTTRUTTTRTRTTUTTTUUUUUIIIPPPPKKKJH",
"JJKKPPPPUUUUUTUTTRTTREEERRRRRRRRERERRRRRRERRTTRRRUTUUUUUPPPPKKKJ",
"JKKPPPIIUUUUUUTUTRTTREEEEERREEEEEEEEERRRREEERTTTRTUTUUUUIPPPPKJJ",
"HJKPIKPUUUUTTTTTERREEQEEEEEEEQQEEEEEEEEEEEEEEEERERRUTUUUUIPPPPKK",
"KKKPPPIUUUTUTTRRERRQEEEQEQEQQQEQEQQQ!QEQEQEQQEEETRRRUTUUUUPPPKKJ",
"JPPPPPIUUTURTTTRTEEQEQEE!QQQQQQEQEEQQQQQQEQEQEQERERRTUTUTUIPPPKK",
"KKPPPIUUUTTTREEEEQQEQQQQQ!!!!!!!!!~!!!!QQQQQQQEEEEERRTTUTUUIPPPK",
"KIPPPUUUTTTTRREEQEQQ!QQQ~~~!!!!~!!!!!!!~!QQQQEEQQERRRRRUUUUUPPPK",
"PIIIUUUUURTRREEEEQ!!~!!~~~~!!~~~~~~~!Q!~~~!!~~!QEEEERRTTRUUUIIII",
"KUIIUUTTTRREEEEEQ!!~~~~~!~~~~~~~~~~~~~~~~~~~!!!!QEEQERTREUTUUIIP",
"PIIIUTUTREEEEQQ!!!!~~~~~/~~/~/~/~//~/~~/~~~~!!!!!!QEEERRRTTTUIII",
"IIIUUUTTRRREEQQQQ!~~~~~(~~/~/~/~/~~/~//~//!!!!!!!QEQQEEETUTUUIII",
"UUUTURTRREEQEEQQ!~~~~/~(////////////////~~/~~~~~!QQEEEEERRUTUUUU",
"UUUUUTUREREQEE!Q!!~~/~~~/////////////////~//~~~~!QQEEQEETRTTUUUU",
"UUTTRREEEEEQ!Q!!!~~(~///((((((()((((((((///~~/~~!!!!!EQEERRRRTTU",
"UUTTRRREEQEQ!!!!~~~//~(/(((()))))))(((((//////~~!!!!QQEEERRRRTUU",
"UUUTRREEEEQQ!!!!~~~~////((())))))))))(((////~~~~~!Q!!QQEEERRTTUU",
"UUTTRREQEQQQ!!~~~/~/////()))))))))))))))((/((~~/~~!!!QQQEERRTTUU",
"TUUTRRRE!QQ!!!~~~~((///(()))))))))))))))((((//((~~~~!QQQQERRTTUT",
"UTRTRRRQE!Q!!~~~~//////((())))))))))))))(((///(~~~~!!Q!EEERRTTTU",
"TUTRRRREEEQ!!~~!~~/////)((()))))))))))))(((///~~~~~!Q!EQEERRERUT"
};
