/* XPM */
static char *result[] = {
/* columns rows colors chars-per-pixel */
"64 64 252 2 ",
"   c #5B180B",
".  c #7A1D11",
"X  c #70170C",
"o  c #722A19",
"O  c #6C2F28",
"+  c #5F2719",
"@  c #7D5A14",
"#  c #794B32",
"$  c #901E0E",
"%  c #B91B08",
"&  c #9B230C",
"*  c #882416",
"=  c #922312",
"-  c #992919",
";  c #932612",
":  c #A8260D",
">  c #B9270C",
",  c #AA2815",
"<  c #B42C14",
"1  c #BC2D14",
"2  c #B72714",
"3  c #BD3114",
"4  c #BC331C",
"5  c #B63519",
"6  c #B03317",
"7  c #903624",
"8  c #B93924",
"9  c #AD3A27",
"0  c #C61B09",
"q  c #D61C07",
"w  c #C42C0D",
"e  c #CA260B",
"r  c #D7280A",
"t  c #C4310E",
"y  c #CE310E",
"u  c #D4330D",
"i  c #DD340D",
"p  c #DB380F",
"a  c #C42B13",
"s  c #CA2D13",
"d  c #C82B16",
"f  c #D82B13",
"g  c #C43314",
"h  c #CB3314",
"j  c #C4341C",
"k  c #CC351A",
"l  c #CC3A1C",
"z  c #C63A1A",
"x  c #D33414",
"c  c #DC3513",
"v  c #DD3A15",
"b  c #D3351A",
"n  c #DA361B",
"m  c #D43B1C",
"M  c #DB3C1D",
"N  c #D43A14",
"B  c #E6280B",
"V  c #E4340D",
"C  c #E4370E",
"Z  c #E23512",
"A  c #E43B13",
"S  c #E93A13",
"D  c #E33D1B",
"F  c #E93D1A",
"G  c #EA3715",
"H  c #E42F12",
"J  c #C43C23",
"K  c #C83923",
"L  c #D33D22",
"P  c #DA3E21",
"I  c #D43323",
"U  c #E23E22",
"Y  c #835E13",
"T  c #B7401A",
"R  c #856114",
"E  c #8B6315",
"W  c #8C651A",
"Q  c #8A651C",
"!  c #92661A",
"~  c #936A1D",
"^  c #976B1A",
"/  c #976D19",
"(  c #A57A1D",
")  c #994C2B",
"_  c #955A2A",
"`  c #894D28",
"'  c #A84A28",
"]  c #B64428",
"[  c #A9542A",
"{  c #BD5429",
"}  c #B54B34",
"|  c #946C21",
" . c #996C25",
".. c #9C7424",
"X. c #9B752B",
"o. c #9E7B2B",
"O. c #957327",
"+. c #9A7735",
"@. c #8C6925",
"#. c #B7682C",
"$. c #A37525",
"%. c #A57A25",
"&. c #AB7C24",
"*. c #A1752A",
"=. c #A47C2B",
"-. c #AB7D2B",
";. c #AB7627",
":. c #B47E2E",
">. c #BA6835",
",. c #AB7D32",
"<. c #A57D36",
"1. c #B57937",
"2. c #AC6533",
"3. c #DC431D",
"4. c #D5431D",
"5. c #EA4215",
"6. c #E4421D",
"7. c #EC441D",
"8. c #EB491C",
"9. c #E64318",
"0. c #F0471C",
"q. c #CA4528",
"w. c #D54323",
"e. c #DC4323",
"r. c #DB4A23",
"t. c #DB4C2A",
"y. c #D84729",
"u. c #D7562B",
"i. c #D84D33",
"p. c #C7533C",
"a. c #D95737",
"s. c #C6522F",
"d. c #E44322",
"f. c #EB4623",
"g. c #E34B24",
"h. c #EC4B23",
"j. c #E44C2B",
"k. c #ED4C2A",
"l. c #E24529",
"z. c #F14A23",
"x. c #F14C29",
"c. c #F14722",
"v. c #ED5225",
"b. c #E4532D",
"n. c #EC532B",
"m. c #EA592B",
"M. c #E4572B",
"N. c #F0542A",
"B. c #E44D32",
"V. c #E45432",
"C. c #EA5432",
"Z. c #E35B34",
"A. c #EC5A32",
"S. c #EB5C39",
"D. c #E1593C",
"F. c #F15B34",
"G. c #C9692D",
"H. c #C97434",
"J. c #EA633B",
"K. c #E5643A",
"L. c #E66736",
"P. c #AA5142",
"I. c #9A784A",
"U. c #B77945",
"Y. c #A96C41",
"T. c #925841",
"R. c #D65D40",
"E. c #C65A43",
"W. c #D56448",
"Q. c #DC734D",
"!. c #E66945",
"~. c #E67348",
"^. c #E87954",
"/. c #B7861F",
"(. c #A6812C",
"). c #AC832D",
"_. c #AD8423",
"`. c #B3852E",
"'. c #B48B2B",
"]. c #BA8E2B",
"[. c #B88825",
"{. c #BC912D",
"}. c #A68233",
"|. c #AC8433",
" X c #AC8835",
".X c #A5833B",
"XX c #AC853A",
"oX c #AC893B",
"OX c #A78B3A",
"+X c #B38534",
"@X c #B48B35",
"#X c #BA8C33",
"$X c #B48C3B",
"%X c #BA8C3B",
"&X c #B58638",
"*X c #BC9334",
"=X c #B6913B",
"-X c #BC933C",
";X c #B29035",
":X c #C69429",
">X c #D09D23",
",X c #C18C3C",
"<X c #C2953B",
"1X c #C49B3B",
"2X c #CA9C3C",
"3X c #C49735",
"4X c #C08F2E",
"5X c #D7A83B",
"6X c #D5A52F",
"7X c #E0AD38",
"8X c #AD8C42",
"9X c #AB8745",
"0X c #B38D43",
"qX c #BC8D44",
"wX c #B48D49",
"eX c #B98B47",
"rX c #B59244",
"tX c #BC9343",
"yX c #BC9843",
"uX c #B4934B",
"iX c #BB944B",
"pX c #BC9A4B",
"aX c #B49849",
"sX c #BD9D53",
"dX c #B99657",
"fX c #AF8B52",
"gX c #BEA150",
"hX c #998A62",
"jX c #B3A26E",
"kX c #9B9064",
"lX c #C39543",
"zX c #C49B44",
"xX c #CA9C45",
"cX c #C29449",
"vX c #C49C4C",
"bX c #CA9B4B",
"nX c #CA9644",
"mX c #C49C52",
"MX c #C49D56",
"NX c #C89444",
"BX c #E7825C",
"VX c #CBA244",
"CX c #CAA34C",
"ZX c #D1A648",
"AX c #CBA454",
"SX c #C7A559",
"DX c #D7AB4E",
"FX c #C7A964",
"GX c #C8AD70",
"HX c #F1936F",
"JX c #CCBD88",
"KX c None",
/* pixels */
"KXKXKXKXKXKXKXKXKXKXKXKXKXKXKXKXKXKXKXKXKXKXKXKXKXKXKXKXKXKXKXKXKXKXKXKXKXKXKXKXKXKXKXKXKXKXKXKXKXKXKXKXKXKXKXKXKXKXKXKXKXKXKXKX",
"KXKXKXKXKXKXd.A U f.f.j.j.h.A.S.!.!.!.KXKXKXKXKXKXKXKXKXKXKXKXKXKXKXKXKXKXKXKXKXKXKXKXKXKXKXBXQ.~.K.C.C.k.h.h.7.F 7.f.KXKXKXKXKX",
"KXKXKXKXd.F G V G S 5.f.f.k.C.S.S.F.J.J.J.J.~.KXKXKXKXKXKXKXKXKXKXKXKXKXKXKXKXKXKXKXKX~.~.K.K.K.K.S.A.n.k.f.F S S G F U KXKXKXKX",
"KXKXKXKXG V V A F 7.f.f.k.x.C.n.n.N.N.A.F.F.F.N.J.J.KXKXKXKXKXKXKXKXKXKXKXKXKXKXL.~.L.M.M.u.K.~.!.!.J.C.C.k.5.S Z Z Z D B.KXKXKX",
"KXKXKX6.V Z A D f.F S f.k.k.h.k.h.x.N.N.n.N.v.N.N.F.F.L.KXKXKXKXKXKXKXKXKXKX!.K.Z.g.9.5.9.8.b.M.A.J.J.S.Z.B.f.D Z i i n P KXKXKX",
"KXKXKXD Z Z D F S F 7.f.f.x.h.k.x.x.x.h.x.h.z.h.v.N.v.v.N.J.KXKXKXKXKXKXKXK.Z.u.g.9.A C A A A d.j.n.S.S.C.C.l.f.M c f n U KXKXKX",
"KXKXKXv i Z A S F 7.7.h.c.c.k.k.k.x.c.c.f.0.0.0.z.z.0.v.v.m.L.KXKXKXKXm.M.M.m.M.3.5.V V V V c A 6.t.b.j.V.C.j.l.D v c c U KXKXKX",
"KXKXKXe.c c Z S F f.f.f.7.c.x.x.z.z.z.z.c.7.v.v.0.0.8.8.v.v.v.m.Z.KXM.m.8.M.L.m.8.C V V i r i u m v 3.e.j.B.Z.B.U D v n l.KXKXKX",
"KXKXKXKXD c F F f.f.x.c.k.x.x.c.z.z.f.z.0.h.v.8.8.9.8.v.8.M.m.v.8.g.g.h.8.v.m.M.r.v c r r u y y y u x m P l.B.V.j.d.c c d.KXKXKX",
"KXKXKXKXM v G f.j.f.U x.k.x.c.c.x.0.0.h.h.h.8.8.8.8.8.v.v.8.v.8.5.6.P M 6.h.m.M.g.m u u e s y e e e w y b P e.B.B.f.D D D KXKXKX",
"KXKXKXKX6.c U U k.f.c.x.c.x.c.c.z.z.z.v.v.z.8.8.8.v.9.9.9.5.5.5.5.S v b m d.h.b.e.m k a a a > e > > e > a x I y.i.B.B.P U B.KXKX",
"KXKXKXKXl.6.k.k.f.f.f.C.x.k.x.c.0.8.z.z.0.0.8.8.8.9.9.5.5.A C A 6.A c n b L r.g.r.L K a a > > : > > > w g h L i.L P k d n B.KXKX",
"KXKXKXKXKXl.n I f d d I I I U k.f.d.8.5.5.5.5.5.9.5.5.i i i i p A 3.N x d 4 4 1 l q.J j > % % % > w a w a k K J 1 > % % % I KXKX",
"KXKXKXKXKXI % 0 0 0 0 % 0 d e b n e.3.v p p 5.A 3.p p u u u i v 9.3.4.h : 9 >.#.5 L y.g 2 2 2 2 % a k d L K q.q.j % % % 0 f KXKX",
"KXKXKXKXKXKX0 q q q q q q 0 e d k d h h N p p u 4.r.4.p x y x n 3.8.r.4.4 #.{ { { K q.8 4 1 a a k k b I i.i.i.k e 0 0 0 q I KXKX",
"KXKXKXKXKXKXKXf q B B q r q f b k k k 1 : 1 z q.K.a.W.a.k s b I 4.3.4.r.z #., - H.s.4 J j K l m I L N I i.i.I f f f r f I KXKXKX",
"KXKXKXKXKXKXKXKXKXf H B B G H f f b 2 $ , 4 8 W.p.R.p.p.q.2 j 8 J w.r.4.g { #.#.H.K q.4 g w.e.M M D M i.a.e.n f f f c KXKXKXKXKX",
"KXKXKXKXKXKXKXKXKXKXKXU G G H f d 2 , 8 4 8 E.W.W.p.} E.} , , 2 6 q.w.w.4.z q.:Xa.y.q.e.k m t.j.g.d.a.a.L n I n n n KXKXKXKXKXKX",
"KXKXKXKXKXKXKXKXKXKXKXKXKXKXF P 2 , K 4 8 K E.W.E.P.} P.9 * = - [ T q.r.4.< 5 G.r.u.u.q.w.n y.V.V.R.R.j.P e.P KXKXKXKXKXKXKXKXKX",
"KXKXKXKXKXKXKXKXKXKXKXKXKXKXKXi.L K 2 j K K K W.W.E.P.O O + $ ) s.] q.w.T 6 #.u.w.r.t.e.L w.M D.~.^.a.KXKXKXKXKXKXKXKXKXKXKXKXKX",
"KXKXKXKXKXKXKXKXKXKXKXKXKXKXb.e.l t y t j 4 4 8 E.P.9 + +   ` ' 8 q.q.q.5 { G.4.w.r.r.3.v M f.B.KXKXKXKXKXKXKXKXKXKXKXKXKXKXKXKX",
"KXKXKXKXKXKXKXKXKXKXKXKXZ.v.d.v u y t 3 1 1 < 5 < - 7 U.U.` ) } 9 8 s.5 T G.q.4.r.r.4.4.4.6.V.S.KXKXKXKXKXKXKXKXKXKXKXKXKXKXKXKX",
"KXKXKXKXKXKXKXKXKXKXKXV.g.D Z Z u w t 3 < : < , - * + _  .O . - ] 9 5 T H.u.r.4.r.4.m 4.M v b.d.k.KXKXKXKXKXKXKXKXKXKXKXKXKXKXKX",
"KXKXKXKXKXKXKXKXKXV.j.d.D S Z u u w > < < : & = . X   Y <.` X o 7 - - >.s.r.r.w.4.N h l M A S F U f.KXKXKXKXKXKXKXKXKXKXKXKXKXKX",
"KXKXKXKXKXKXKXKXB.U d.D F Z x y w > > 6 : & ; $ X   + hXhX# . * o * ) [ 8 q.z z h h h m m 6.F F F U f.KXKXKXKXKXKXKXKXKXKXKXKXKX",
"KXKXKXKXKXKXi.l.y.U 6.D M c u h w 3 > : & ; * X X X # hXhX# o KXKX) [ * = : : 3 g h x m v v d.8.7.F U d.KXKXKXKXKXKXKXKXKXKXKXKX",
"KXKXKXKXB.t.P L d.e.M v m x h g 3 3 : & $ $ * 7 ` Y.+.jXjXjXfXfXdXfXT.* = = : < 1 l L N m D d.d.7.F F U d.KXKXKXKXKXKXKXKXKXKXKX",
"KXKXKXB.P L e.d.P P e.m N h h g < : & & ; ) U.qXlXxXbXjXJXGXcXcXcXeXfXY.) - - < 4 l l n P P P e.f.d.U F U f.KXKXKXKXKXKXKXKXKXKX",
"KXKXV.e.P e.d.U P v m m b b h 3 > & ; [ ,.tXAXAXAXDXAXMXdXiXeXcXMXMXMXmXeXU.) , 8 l m m m M M 6.D d.M 6.7.D U KXKXKXKXKXKXKXKXKX",
"KXKXZ.j.e.P P M P M m N h l g < : - 2.%X2XAXxXvXwXnXmXfXeXeXeXlXMXMXMXSXbXnXcXY.9 4 j L P P e.M M P P e.6.M n U KXKXKXKXKXKXKXKX",
"KXKXV.r.3.M P U P M m N m k 3 , ' ,.3XZXAXxX3XzXNXbXMXqXU.wXqXcXbXbXbXmXbXAXMXlXU.9 j m P P P M M m e.e.M M n n P KXKXKXKXKXKXKX",
"KXKXKXg.6.v M M M m m m l l < ' @X1XZXAXSXzXnXcXbXcXmXMXwXiXiXcXeXcXiXNXbXAXGXbX<XeX] j L m P m L L w.m m m b n b M KXKXKXKXKXKX",
"KXKXKXu.d.d.3.M m P m L m j ] `.VXSXCXgXmXvXpXsXiXiX0X0X9XwX9XXXU.dXMXMXGXFXsXMXzX2X1.8 N m m m L L k k N K l N b k w.KXKXKXKXKX",
"KXKXKXKXg.e.d.3.w.e.w.N k T `.'.CXpXzX@X@XtXuX0X.XcX%XiXcXeXqX0XeXdXiXdXFXAXsXbX2XZX,X1.9 L m P w.k h k g z l g h h m V.KXKXKXKX",
"KXKXKXKXu.t.e.e.e.e.P m 4 #.{.5XVXVXlX-X-X@X=.lXtXiXqX0XeXeXeXwXiXmXbXsXsXvXvXcXxXCXxX4X[ 4 N m l l k k g g g z g g w.!.KXKXKXKX",
"KXKXKXKXKXZ.g.l.d.3.P 8 [ '.2XZX-X;XrXuX8X%X-XrX@X-.;.;.;.;.:.:.$XiXiXbXlXqXbXvXbXDXZX:X].} 4 k h h k g g g t t g z W.KXKXKXKXKX",
"KXKXKXKXKXKXJ.b.e.L K ] `.3XVXgXVX-XpXoX}.$XrX%.%.;.@XlXcXNX,X1.:.:.&XlXlX%XcXzXSXVXxX1X4X1.8 k x l h g g g t t z i.KXKXKXKXKXKX",
"KXKXKXKXKXKXKXJ.t.t.J { *X2X*X_.xX<X@X XCX).%.%.#XbXAXbXcXqXeXqX4X;.&.`.tXbX%XiXbX3XzXCX1X#Xs.b n v h h t g t t 4.b.KXKXKXKXKXKX",
"KXKXKXKXKXKXKXKX~.K.p.%X{.1X;X*X@XXX@X$X X*.( `.nXlX$X<.*.<.I.1.1.;.$.&.+XtX-X@X&X3X3XVXxX:X:.3.6.F p y t t g 3.t.KXKXKXKXKXKXKX",
"KXKXKXKXKXKXKXKXKXKXKX*X{.1X;X=X X=.oX=X$...$.nXnX`.&XeXeXiXeX<.:.:.^ / $.`.lX#X@X-XyX*X2X>X2Xa.b.f.v u t h 4.M.KXKXKXKXKXKXKXKX",
"KXKXKXKXKXKXKXKXKXKXKX'.1X1X;X=XrX=.@XX.! ! %.3X$.$.-.9X9X<.*. .,.+XW E ! %.+X#X+XlXzX*XVX7X5XKXKXJ.!.S.a.u.KXKXKXKXKXKXKXKXKXKX",
"KXKXKXKXKXKXKXKXKXKXDX_.1XyXyXgX8X|.=X| E E $.^ W ~ X.9X<.1.,. .*.:.! ! E / ).-X#X$XSXSXDX5X6XKXKXKX^.~.^.KXKXKXKXKXKXKXKXKXKXKX",
"KXKXKXKXKXKXKXKXKXKX1X{.5XgXaXaX}.o.}.Q R Y $...| =.&XXX*.,.&X;. .-.^ ! R ~ ..|. X=XtX-X1X6X6XKXKXKXBXHXKXKXKXKXKXKXKXKXKXKXKXKX",
"KXKXKXKXKXKXKXKXKXKX3X*XgX1X(.OX=.=X}.R R Y ! XX.XeX%X;.^ ;.&X*.| ;.^ ^ E E ~ @X+X|.-X-X{.>X>XKXKXKXBXKXKXKXKXKXKXKXKXKXKXKXKXKX",
"KXKXKXKXKXKXKXKXKXKX*X3X2X*X X X|.|.O.E E Y !  X8XO.Y ~ ! *.,. .! ;.^ ! W E ! =.=.).).@X*X:X>X7XKXKXKXKXKXKXKXKXKXKXKXKXKXKXKXKX",
"KXKXKXKXKXKXKXKXKXKX1X*X'.=X XoX(.;X}.R Y @ XX0X&X| | | $.-.-.| ! $. .! ! W ! }.%.}.<. X1X2X:X5XKXKXKXKXKXKXKXKXKXKXKXKXKXKXKXKX",
"KXKXKXKXKXKXKXKXKXKX-X_.*X'. X$Xo.o.o.Y R @.+.0X#X$.| | !  .%.| ! ..*.E ! ! E X.X.<.*.}.tX4X/.ZXKXKXKXKXKXKXKXKXKXKXKXKXKXKXKXKX",
"KXKXKXKXKXKXKXKXKXKX1X_.3X-XiXrX X XoX@.@.+.Q R =.+XQ E Y ! ;.~ ! ~ -.! W E ~ |.O.+.wXuXuX#X[.KXKXKXKXKXKXKXKXKXKXKXKXKXKXKXKXKX",
"KXKXKXKXKXKXKXKXKXKXKX_.*X=XrXrX|.-. X~ W ~ E R E '.o.W Q $.=.| ~ O.X.! Y E .. X*.<.+X X*X*X[.KXKXKXKXKXKXKXKXKXKXKXKXKXKXKXKXKX",
"KXKXKXKXKXKXKXKXKXKXKX_.%X).*.$XXX| XXoXE R E R E (. XOX}.%.! ~ ).o.Y Y ! ^ )...=.XX$XoX-X[.{.KXKXKXKXKXKXKXKXKXKXKXKXKXKXKXKXKX",
"KXKXKXKXKXKXKXKXKXKXKX{.{.;X@X).,.=. X).( E E R Y Y @ @ @.~ ! =.X.W Y Y ! $.@X X X,.%X X#X/.2XKXKXKXKXKXKXKXKXKXKXKXKXKXKXKXKXKX",
"KXKXKXKXKXKXKXKXKXKXKX2X[.-X(.=.).%X..).;X~ E E R @ @ @ E ..o.).Y W @.E $.&X%.<.-.@X-.).).[.DXKXKXKXKXKXKXKXKXKXKXKXKXKXKXKXKXKX",
"KXKXKXKXKXKXKXKXKXKXKXKX[._.-X).$XuXoX=.).).X.E Y Y @ @ R X.}.W R Y W $.|.@X(.&X+X$X}.tX'.*XKXKXKXKXKXKXKXKXKXKXKXKXKXKXKXKXKXKX",
"KXKXKXKXKXKXKXKXKXKXKXKX1X_.'.;XrX(. X X&.-X)...E R Y R Y Q | R R | =.-X).<.rX0X,.+XiX-X&.DXKXKXKXKXKXKXKXKXKXKXKXKXKXKXKXKXKXKX",
"KXKXKXKXKXKXKXKXKXKXKXKXKX].'.1X@X'.oX-.).(. X-X|.=.Q Q R Q E X.o.%X%X=. XiX+XXX,.#X#X&.*XKXKXKXKXKXKXKXKXKXKXKXKXKXKXKXKXKXKXKX",
"KXKXKXKXKXKXKXKXKXKXKXKXKXVX[.*X-X*X@X}. X=X%X(.(.yXOX@X}.oX@X$X%X X X}.&X*.,.%X+X X$.).KXKXKXKXKXKXKXKXKXKXKXKXKXKXKXKXKXKXKXKX",
"KXKXKXKXKXKXKXKXKXKXKXKXKXKX3X_.3X_.rXoXaXpX-X.X<.-.o.0X=. X}.|.oX.XuXuXwX,.}.rXrX@X( yXKXKXKXKXKXKXKXKXKXKXKXKXKXKXKXKXKXKXKXKX",
"KXKXKXKXKXKXKXKXKXKXKXKXKXKXKX*X].=XpXaXzX-X=X8XuXXX8XuXwX.X.XoX0X X8XoX8XiXrX%XrX-.lXKXKXKXKXKXKXKXKXKXKXKXKXKXKXKXKXKXKXKXKXKX",
"KXKXKXKXKXKXKXKXKXKXKXKXKXKXKXKX3X_.rXVX@X(. XoXoX$X0X.X8XXX8X8X$XXXXX<.9XrXrX|...tXKXKXKXKXKXKXKXKXKXKXKXKXKXKXKXKXKXKXKXKXKXKX",
"KXKXKXKXKXKXKXKXKXKXKXKXKXKXKXKXKX1X'.;X*XyX;X).XX0X@X(.$XXXOX8X&XX.$X}.$XoXO.o.MXKXKXKXKXKXKXKXKXKXKXKXKXKXKXKXKXKXKXKXKXKXKXKX",
"KXKXKXKXKXKXKXKXKXKXKXKXKXKXKXKXKXKXZX{.'.VXgXgXsX$X%X-XaXsXsXuXoXaXwX.X+.X.8XFXKXKXKXKXKXKXKXKXKXKXKXKXKXKXKXKXKXKXKXKXKXKXKXKX",
"KXKXKXKXKXKXKXKXKXKXKXKXKXKXKXKXKXKXKXKXVX1X;XOXOX=XpXCXgXgXdXaXaXfX.X+..XsXKXKXKXKXKXKXKXKXKXKXKXKXKXKXKXKXKXKXKXKXKXKXKXKXKXKX",
"KXKXKXKXKXKXKXKXKXKXKXKXKXKXKXKXKXKXKXKXKXKXZX;X(.(.}.8XaX9XO.O.o..XrXSXKXKXKXKXKXKXKXKXKXKXKXKXKXKXKXKXKXKXKXKXKXKXKXKXKXKXKXKX",
"KXKXKXKXKXKXKXKXKXKXKXKXKXKXKXKXKXKXKXKXKXKXKXKXKXKXCXaXrXaXaXKXKXKXKXKXKXKXKXKXKXKXKXKXKXKXKXKXKXKXKXKXKXKXKXKXKXKXKXKXKXKXKXKX"
};
