/* XPM */
static char *b86f9263438548d8ab47bbd966260062DXm1xfi5LgArs9a1[] = {
/* columns rows colors chars-per-pixel */
"64 64 153 2 ",
"   c None",
".  c #1A1B1C",
"X  c #262218",
"o  c #2A251D",
"O  c #1F1F20",
"+  c #232424",
"@  c #2C2522",
"#  c #2F2926",
"$  c #272728",
"%  c #272828",
"&  c #2C2D2D",
"*  c #312B27",
"=  c #322B28",
"-  c #2F2F30",
";  c #2F3030",
":  c #313232",
">  c #8E421F",
",  c #9D551F",
"<  c #964C20",
"1  c #994F21",
"2  c #8E5124",
"3  c #905426",
"4  c #9D5421",
"5  c #955A23",
"6  c #915428",
"7  c #955C2A",
"8  c #A35C22",
"9  c #9B6223",
"0  c #9A662D",
"q  c #A76123",
"w  c #AA6523",
"e  c #A36B24",
"r  c #AE6A24",
"t  c #B16D24",
"y  c #A97224",
"u  c #B67225",
"i  c #B97625",
"p  c #B27E26",
"a  c #BD7B26",
"s  c #BA7E2A",
"d  c #C57F1E",
"f  c #C17F26",
"g  c #BC8A26",
"h  c #C7811D",
"j  c #C8831E",
"k  c #CF8A1D",
"l  c #D28E1D",
"z  c #DC991D",
"x  c #E2A11D",
"c  c #C48327",
"v  c #C88727",
"b  c #C68927",
"n  c #CB8B26",
"m  c #C68628",
"M  c #C68928",
"N  c #CB8C28",
"B  c #D08E21",
"V  c #C69528",
"C  c #CE9029",
"Z  c #D39425",
"A  c #D69927",
"S  c #D99C26",
"D  c #D29529",
"F  c #D6992A",
"G  c #DA9D29",
"H  c #D39C34",
"J  c #D19C3A",
"K  c #DDA127",
"L  c #DDA22A",
"P  c #DEA82D",
"I  c #D7A131",
"U  c #D9A332",
"Y  c #DEAB3D",
"T  c #E2A625",
"R  c #E5A824",
"E  c #E9AC25",
"W  c #E1A62B",
"Q  c #E7AE2D",
"!  c #E6AD2D",
"~  c #E4AA2C",
"^  c #E8AF2D",
"/  c #E8AE2C",
"(  c #E8AE2E",
")  c #E8AF2D",
"_  c #EFB121",
"`  c #E9B12D",
"'  c #EAB12D",
"]  c #EAB12C",
"[  c #EAB22D",
"{  c #EBB22D",
"}  c #EBB12E",
"|  c #ECB32C",
" . c #EDB52D",
".. c #EDB42D",
"X. c #EDB42E",
"o. c #EDB52E",
"O. c #EEB62E",
"+. c #EFB72E",
"@. c #EBB32D",
"#. c #EFB82E",
"$. c #F4BA24",
"%. c #F0B82E",
"&. c #F0B92E",
"*. c #F1B92E",
"=. c #F1BA2E",
"-. c #F2BB2E",
";. c #F3BC2F",
":. c #F4BD2F",
">. c #F4BC2E",
",. c #F5BE2F",
"<. c #F6BF2F",
"1. c #F3BC2F",
"2. c #E2B23D",
"3. c #ECB93B",
"4. c #EBB93D",
"5. c #F6C02F",
"6. c #F7C02F",
"7. c #F7C12F",
"8. c #F7C02F",
"9. c #F8C12F",
"0. c #F9C32E",
"q. c #F8C22F",
"w. c #F9C22F",
"e. c #F9C32F",
"r. c #FAC32E",
"t. c #FAC42F",
"y. c #FBC42F",
"u. c #FBC52F",
"i. c #F9C32F",
"p. c #F9C230",
"a. c #FAC330",
"s. c #FAC430",
"d. c #FBC430",
"f. c #FBC530",
"g. c #FBC630",
"h. c #FCC630",
"j. c #FCC730",
"k. c #FDC730",
"l. c #FBC530",
"z. c #FDC830",
"x. c #E2B240",
"c. c #E0B74C",
"v. c #E9BE51",
"b. c #EABE50",
"n. c #E5BF58",
"m. c #EAC24E",
"M. c #F7C842",
"N. c #FACB40",
"B. c #E8C45B",
"V. c #EAC759",
"C. c #EBC95B",
"Z. c #F5CF59",
"A. c #F7D35C",
/* pixels */
"                                                                                                                                ",
"      . . . O O + + + $ & & & & - - - ; - : : ; : : : : : : : : : : : : : : : : - : : = ; : - - & & & % % + + + + . . . .       ",
"    o o o o o o o @ @ o @ @ @ @ @ # # * # * * = * = * = = = = = = = = = * * = = * * * * # # # # @ @ @ @ o @ @ o o o o o o X     ",
"    V V g p e e 9 5 3 2 2 2 2 2 2 2 2 2 6 2 7 0 6 6 6 6 6 6 6 6 7 6 6 6 6 6 6 7 6 7 0 6 6 2 6 2 2 2 2 2 2 2 3 6 5 5 e e V g     ",
"    W } ~ W F N m f a i u u i i i i i i i a a a a i i i i u u u t i t i i i i i i a s i i i i i i i i i u u u u t t t i } L     ",
"    L ( X.X.~ G F D D N N D D N C C Z D F F H J F D D C D C n C N C N N N D D D F H J F F D C D C N N N N N c c f a u i ! G     ",
"    G ~ F :.-.} ( ~ ~ ~ W ~ W W ~ ! ! } } | x.V.X.} Q Q ~ W W W W W W W W W ~ ( / 3.b.X.( ( ~ W W L W W L F F D v v f i Q F     ",
"    G Q F F :.p.>.%.%.%.X.X.%.%.%.;.>.>.r.y.z.A.u.r.;.%.X.#.X.X.X.X.O.X.+.%.1.>.r.M.Z.r.<.>.1.+.-.O.O.O.} ~ W F F n u t Q F     ",
"    F Q ~ F N ( d.d.u.u.u.s.s.s.s.d.j.s.:.Q Y B.Q r.j.s.s.r.p.a.<.p.p.r.<.a.d.p.~ Y n.G <.d.d.a.r.u.7.r.7.#.} ~ G a w u ( Z     ",
"    F ~ F ( F v N W X.;.7.7.>.>.O.~ L D N N 2.C.D C L } >.y.d.d.d.j.j.d.a.O.W N F 2.B.F v G 1.a.j.j.j.j.u.;.Q N u t u N } C     ",
"    F W v L Q F D v c a f a f c c m M M G F H c.D C m m f f f v N N N m f f C F D Y m.F F c i a m C F D N a r u i u D D ( N     ",
"  4 c G m b G ( F v v N N N N N c c D L F m H Y N N D N N N N v N v N N D D n v F U 2.F n C D N m f a a a c c a a D G f L a     ",
"    > 4 N C N C ~ O.L C N c c N K ~ L N c v C P v Z b v n v c g f c f c c c n S n D L C F b c g a a a a i i a C F G v i 1 >     ",
"    a 8 F F c N M N F ~ } O.X.~ F v c c c N ~ Q G b S A v f v v M v v c c D S n v W ~ v Z K N N C D D F A A C N G B N v q       ",
"      m F m N M N N m c f a a c c v c v n W     W F c l R R T S F Z F T R Z v v L     F v l E L N a a a a b S R k c G D N       ",
"      v L m F c m m N c a f a a a v M C L         W F v c j l z x x z l f c n S         D c j z E $.$.$.$._ z c c C v L D       ",
"        W c F 4 i N c N C D D D N N D G             L G N m v v c v v N N N G           K C N c d d d h d c c v n F a ~ u       ",
"        W c F 4 u G m C M m b v C G                     G D v c f a c v D L               G Z N N N N N N m v N t F c W         ",
"        L c D 1 a C u Q c F C                                 L G L L K                       G F N N N N N F a < D c W         ",
"        L c D 1 c b i X.u G                                                                         F a P a v m < D f W         ",
"        W c D < m c a } i L                                                                         L i Q c a N < C c L         ",
"        L c N < N a b ~ i L                                                                         G a ~ N s C < N v L         ",
"        L m N < C i C L a K                                                                         G f G D u C < v v L         ",
"        K m m 1 C t F F c F                                                                         A v D G w D 1 c v L         ",
"        G v m 1 D w L C N D                                                                         Z N N ~ w D 1 a M L         ",
"        G N a 4 C w Q m D Z                                                                           D c Q w D 4 a N K         ",
"        G N a 4 C w } a F                                                                             G s ( w C 4 i N G         ",
"        F N u 8 N w } a G                                                                             G a } r M w r N F         ",
"        F N r w v u } a K                                                                             L s ~ u c r w C F         ",
"        F C w t a a ~ a G                                                                             G c L c i u q C Z         ",
"        F C 8 i u M F M A                                                                             Z N F N u a 8 C F         ",
"        Z C 8 a w F C C                                                                                 D N F w a 4 C D         ",
"        D N 8 f w L c F                                                                                 F c L q c 4 N F         ",
"        D N 4 f q ~ a G                                                                                 K a Q w c 4 v D         ",
"        D m 4 g r ~ c G                                                                                 G c L t a 8 c D         ",
"        D c 8 a a F N A                                                                                 D C F f i 8 g D         ",
"        D a w t M N F                                                                                     F M N r w i D         ",
"        C i r w F c G                                                                                     G c G w t u F         ",
"        Z u t w F N G                                                                                     G N F w u t D         ",
"        D t t t D D                                                                                         D C u t r F         ",
"        D r w g N K                                                                                         F N f r r D         ",
"        D a w c C                                                                                             C m r i D         ",
"        C a a N F                                                                                             F M p i D         ",
"        C r t b I                                                                                             U N u t D         ",
"        D u w N H                                                                                             F M t t D         ",
"        D u r N F                                                                                             H N r u F         ",
"        D i r C b                                                                                             M N t u D         ",
"        F i w C M b                                                                                           m D t i F         ",
"        D a r C M M                                                                                         c b C r i F         ",
"        Z a w C N C                                                                                         D N C w i F         ",
"        D c w C N F                                                                                         D N C r g F         ",
"        D c w C b C                                                                                         D m C w f F         ",
"        F c w N N D                                                                                         C N D w f F         ",
"        D m w N M C                                                                                         C N N 8 c F         ",
"        D m w N N N                                                                                         C M D q c F         ",
"        D M q N N N                                                                                         N N D 8 m F W       ",
"        D m 8 N v v                                                                                         N M N 8 v F W       ",
"      n D N q N N v                                                                                         v m C q M D W       ",
"      n F m q N N c                                                                                         m N N 8 N D W       ",
"      D D m q v C a                                                                                         c N N q v F W       ",
"      D D c q c C a                                                                                         a N N q v D W       ",
"      N F c w c D a                                                                                         a C c q c F W       ",
"      N F f i                                                                                                     i c F ~       ",
"                                                                                                                                "
};
