/* XPM */
static char *c92f5c0f43ed4bdbc779b3cf66ff5286kilaWEq7hqrLAIqA[] = {
/* columns rows colors chars-per-pixel */
"64 64 225 2 ",
"   c None",
".  c #0B0705",
"X  c #0C0806",
"o  c #0A0708",
"O  c #0D0A09",
"+  c #070504",
"@  c #120704",
"#  c #120906",
"$  c #1B0A05",
"%  c #130D0B",
"&  c #190E0B",
"*  c #16100E",
"=  c #1B110E",
"-  c #161111",
";  c #1D1512",
":  c #1E1815",
">  c #1F1918",
",  c #240D08",
"<  c #23130D",
"1  c #2C140C",
"2  c #2F180D",
"3  c #36180D",
"4  c #221612",
"5  c #2A1611",
"6  c #241A15",
"7  c #2B1B14",
"8  c #241C19",
"9  c #2A1E1A",
"0  c #321C15",
"q  c #3C1D13",
"w  c #331C16",
"e  c #2C211C",
"r  c #2A201A",
"t  c #352117",
"y  c #33231B",
"u  c #3C251C",
"i  c #3C2218",
"p  c #2D2421",
"a  c #322622",
"s  c #332925",
"d  c #3C2C24",
"f  c #382C29",
"g  c #3C312D",
"h  c #3E3432",
"j  c #421D0F",
"k  c #441E15",
"l  c #442115",
"z  c #43241A",
"x  c #4C291C",
"c  c #4A2518",
"v  c #532A1C",
"b  c #582718",
"n  c #5B321F",
"m  c #612C19",
"M  c #71341D",
"N  c #4C2B21",
"B  c #452E26",
"V  c #5A2E22",
"C  c #522E23",
"Z  c #453229",
"A  c #5A3124",
"S  c #573428",
"D  c #4A3C36",
"F  c #5D3B31",
"G  c #643425",
"H  c #64392B",
"J  c #693928",
"K  c #743B2C",
"L  c #773B27",
"P  c #6A3C32",
"I  c #733E30",
"U  c #49403D",
"Y  c #52423A",
"T  c #5A4035",
"R  c #7B432D",
"E  c #74442D",
"W  c #664334",
"Q  c #6C4233",
"!  c #6E4539",
"~  c #734433",
"^  c #794836",
"/  c #764935",
"(  c #574B48",
")  c #5C514C",
"_  c #795445",
"`  c #705E57",
"'  c #69524B",
"]  c #80371F",
"[  c #853B26",
"{  c #8C442B",
"}  c #9B4B2E",
"|  c #96472C",
" . c #844534",
".. c #8C4B34",
"X. c #8B4C3B",
"o. c #854937",
"O. c #944B34",
"+. c #9B4D33",
"@. c #944E3B",
"#. c #984C39",
"$. c #83523D",
"%. c #8D533D",
"&. c #9D5236",
"*. c #93533C",
"=. c #9C543A",
"-. c #9D5B3D",
";. c #935134",
":. c #A35336",
">. c #A35A3D",
",. c #AB5B3D",
"<. c #A3563C",
"1. c #B15C3C",
"2. c #A54F35",
"3. c #A9603F",
"4. c #964D41",
"5. c #845443",
"6. c #8C5543",
"7. c #8B5943",
"8. c #8B5A47",
"9. c #9C5441",
"0. c #935A42",
"q. c #9D5C42",
"w. c #965A47",
"e. c #834E41",
"r. c #A45D42",
"t. c #AB5E43",
"y. c #A75A46",
"u. c #B25C43",
"i. c #9B654D",
"p. c #9B634A",
"a. c #9D6959",
"s. c #A46142",
"d. c #AC6244",
"f. c #A4634C",
"g. c #AD634B",
"h. c #AB694B",
"j. c #A8694B",
"k. c #B26444",
"l. c #B5644B",
"z. c #BA6549",
"x. c #B56B4B",
"c. c #BB6C4B",
"v. c #B86746",
"b. c #BE714F",
"n. c #AB6B53",
"m. c #A56B56",
"M. c #BD6D53",
"N. c #B76955",
"B. c #A7755C",
"V. c #B97658",
"C. c #AE7B65",
"Z. c #BB7964",
"A. c #C1694D",
"S. c #C4724F",
"D. c #C66F57",
"F. c #C57352",
"G. c #CC7453",
"H. c #CC7A55",
"J. c #CB7A5A",
"K. c #C57759",
"L. c #D47B55",
"P. c #D37C5A",
"I. c #DA7E5C",
"U. c #CA7766",
"Y. c #D57A62",
"T. c #BB8265",
"R. c #CA825E",
"E. c #D4835E",
"W. c #DC835D",
"Q. c #E4885F",
"!. c #C88566",
"~. c #D28562",
"^. c #DB8462",
"/. c #DC8C64",
"(. c #D38C69",
"). c #D78B67",
"_. c #DC926B",
"`. c #D99069",
"'. c #C98974",
"]. c #D68C74",
"[. c #DB9678",
"{. c #C7907D",
"}. c #E18563",
"|. c #E58A64",
" X c #E38C6B",
".X c #EA8D69",
"XX c #E88B66",
"oX c #E3946D",
"OX c #EC936C",
"+X c #EC9A6E",
"@X c #E8976C",
"#X c #EA887A",
"$X c #E69474",
"%X c #ED9671",
"&X c #E49A73",
"*X c #ED9D73",
"=X c #EC9E7A",
"-X c #E5987D",
";X c #F09D73",
":X c #F09E79",
">X c #EEA175",
",X c #EEA379",
"<X c #F0A275",
"1X c #F0A47A",
"2X c #F1AA7D",
"3X c #DC9786",
"4X c #E79C84",
"5X c #D6AB94",
"6X c #D3A78F",
"7X c #EAA485",
"8X c #F1AD82",
"9X c #F1AC8A",
"0X c #F1A481",
"qX c #F2B185",
"wX c #F3B68C",
"eX c #EDAF9A",
"rX c #F2B494",
"tX c #F0AB95",
"yX c #DCB9A2",
"uX c #EFB8A2",
"iX c #F4D7BC",
"pX c #EEC7AD",
"aX c #F4C093",
"sX c #F3DEC2",
"dX c #F8E5C6",
/* pixels */
"                                                                                                                                ",
"                                                    p % - * % % * : O O *                                                       ",
"                                                - > > O O % * * - - O O > * X +                                                 ",
"                                            o - : > * - O O O O O O * O & - O o + X                                             ",
"                                          8 8 8 - - * * - O O O X O O % * % - - % X o o                                         ",
"                                        ( h s s 8 % * - % O X O O O - O O - * : - O X O O                                       ",
"                                      D f > ; * > - % O * O O X - O O X X X O : O O X O % -                                     ",
"                                    s p 4 % # - * % O X o o o o O O X X X X X * O O X O : >                                     ",
"                                    4 e p > % ; * * O + . + . + o + + o O o O % * O O X % - :                                   ",
"                                    8 g 6 % % % % % O X + + + + + o + o O . O % - O O X . % >                                   ",
"                                  ; 8 9 % - & % O O o o + + + o + X o + o o X O O - - O . % 8 >                                 ",
"                                o % ; 6 8 8 O O - O O % % O + + X + X + o X X X O O - * + X % - -                               ",
"                              * - # = 6 4 & % % - * * % % o o o X + . . . o O X O O % . + . X * O                               ",
"                            * - * = 4 4 4 4 4 4 ; - * & @ @ @ @ X X . @ @ @ # , 2 w w = . . X % O                               ",
"                          * & - 8 p 8 a y B d d w q C N k k b G x c z x G K K  .%.%.$.A $ . % X X X                             ",
"                          4 - 9 s 8 5 d k N V m K X.9.@.#.9.l.D.V.F.M.M.D.N.x.t.>.<.<.6.x . O * X O                             ",
"                        * 8 : a 9 ; 0 A G  .O.d.M.z.u.1.u.G.I.I.}.}.}.I.G.S.z.k.t.y.t.s./ = O * O O                             ",
"                        & 8 ; 4 & = N L } F.~.$XoX.X}.^.}..X.X.X}.XXXXQ.I.G.A.k.t.t.d.d.%.t % * - *                             ",
"                      & ; > & % & 4 A #.P.@X<X2X0X1X:X;X%X%X%XOX.X.X.X}.I.L.F.v.d.d.d.d.s.C = * * * -                           ",
"                      & & % O O & 1 L J.*X1X2X2X8X1X;X%X%X%XOXOX.X.X.XQ.I.L.G.z.d.t.d.k.h.Q 2 = * * :                           ",
"                      % @ . . % = i f.*X1X>X2X2X8X:X%XOXOXOX.X.X.X.X.XQ.L.G.G.A.,.d.d.x.x.7.B r = * :                           ",
"                      % X . . ; 7 G (.<X<X1X1X2X1X:X%XOX.X.XXXXX.X.XOX}.P.G.G.M.t.t.k.v.b.j.W d & = >                           ",
"                    & - @ . . 8 w R *X>X>X>X,X=X1X0X:X%XOX.X|.|..XOX%XXXW.V.f.X.o.q.d.x.R.h.W B < * :                           ",
"                    ; 4 @ . . 4 t o.*X*X*X`.N.h.Y.-X0X1X:X%X.X.XOX%X=X$XZ.%.A i j m *.k.S.V.E d = $ =                           ",
"                    9 e = O O 6 2 %.>X>X(.;.E R R %.p.R.,X*X*XOX%X%X].m.n j l v b b L 3.S.V.E y ; $ * ;                         ",
"                    y d r % % 6 2 s.*X*XR.V.V.V.j.E m M x.=X:X*X X~.-.b b  .f.g.9.*.&.3.c.V.E u 6 % * ;                         ",
"                    y Z y * % 6 i b.;X;X,X,X2X2X&X~.,.} k.oX1X+XY.S.+.;.K.&XoXJ.v.,.3.3.3.x./ u < $ * :                         ",
"                  7 u d d 7 < < v R.+X<X,X2X,X>X$X/.E.F.E.*X1X=XP.z.,.R.7X-X!.l.9.-.r.:.3.b./ i 5 < * 8                         ",
"                  r y 0 d i B q n E.<X<X>X&XT.B.0.6.r.l.A._.8X>XP.k.} V.(.B.5.H n G  ...>.h.e.q Q S = 8                         ",
"                  e r 5 d z i.5.n /.+X<X`...J x j v K [ &.E.2X*XH.k.] { %.E c c j j b ..>.t.e.b w.S & 8                         ",
"                  y e 7 d i q.U.{ /.+X<X`.s.j.j.*.....{ &.oX2X>XH.k.O.[ n.V.h.-.X.R R ..:.d.6.G y.z $ ;                         ",
"                  9 t 7 y t 4.Y.-.`.+X<X>X>X&X`.^.F.v.S._.1X1X>XP.u.r.=.:.b.J.b.k.d.t.=.&.r.f.I w.5 & ; ;                       ",
"                7 7 r 7 e 5 X.D.k.@X>X2X2X*X@X|.L.E.Q.+X<X1X1X:XH.1.,.<.:.k.G./.^.J.x.t.<.,.h. .8.4 & ; ;                       ",
"                7 r e 7 9 4 P Y.A.*X2XqX2X<X@X.XQ.XX+XOX<X;X<X%XP.,.:.:.:.F._.@XoXY.c.k.d.d.x.X.5.4 & 4 4                       ",
"                y y e < 5 = l N.K.>X2XwXqX1X;XOXXXOXI.L.;X+X%X.X^.z.:.+.} v. XOX$X^.G.z.x.v.x.*.P & & 4 4                       ",
"              7 d s 7 = < = , R J.1XqXwXwX8X:X;XXXW.1.W.1X8X:X%X XF.,.2.| [ u. X.X XY.c.k.x.x.%.N & 4 4 6                       ",
"              r y y 6 = = = # c ~.1X8XwXaXrX8X$XL.| A.1X9X9X0X-X XD.u.y.y.O.M u. X X^.c.k.x.x.p.3 4 ; 4 6                       ",
"            r r y e = ; = = # b _.1X2X8XwX9X$XJ.} O.].].V.n.]. XV.X.I e.$.6.I m y.P.P.z.k.x.v.j.c & 4 4 6                       ",
"            = r y r r 6 = * @ W @X;X>X1X8X=XK.o.G ~ $._ S k I 4.I q , 1 w k w 1 b l.G.v.3.v.k.h.H < & , 4 4                     ",
"          = r 7 7 : r r = % # E >X;X;X+X1X`.^ 3 0 w i 0 0 7 4 5 5 & = * & % % % , J x.1.1.3.k.x._ < = & 4 6                     ",
"          6 r r 6 ; r ; = * $ $.>X>X*X;X@Xf.i 7 9 q B N k 5 1 5 w 5 5 4 ; - - - & 1 [ u.1.3.1.x.7.5 = & 4 4                     ",
"        ; r 6 6 = 6 r = = * $ 0.2X2X>X*X`.J 5 7 u S I 4.4.[ 4.[  .K V v k w 5 ; % $ b l.,.,.v.b.p.7 = $ ; ;                     ",
"        = 6 = ; = r r ; = % $ %.2X2X2X2X(.z 6 t z K @.g.3X{.3X'.'.U.n.m.e.C k 5 % # k l.,.3.k.b.i.w & & & ;                     ",
"        ; 6 * * 6 e r = = * $ ..>X2XqXqXT.z < u I M i.pXsXdXdXsXiXiXpXuX6XC.P k 5 & C y.,.x.x.c.p.0 = $ % = -                   ",
"      & 4 ; % $ r y r = = % = i.>X2X2XqXT.u 4 A Z.%.6XdXsXsXsXsXiXpX5X5X3X3X4.' w 8 N =.k.c.x.d.8.7 ; & % & &                   ",
"      * = ; % * r r ; ; ; * t T._.2X2X2XB.e 7 J 3X7X'.'.3X5XyX5X6X6X'.U.y.e.4.e.5 4 q @.c.c.k.d.^ 6 = & @ # %                   ",
"      * = = % ; r = ; 4 ; = d B.!.>X<X2XC.u t ^ 7X9X7X4X4XtXtXuXpXuX3XU.y.y.y.e.5 4 q *.k.k.d.j.5.4 & & # % %                   ",
"      8 6 % * 8 6 & = = 4 6 d Q p.>X<X>XB.u 5 E 4X9X9XtXeXtX4X#X3XY.Y.A.u.y.l.^ w 4 k 4.r.d.d.h._ a # % # % %                   ",
"      e ; % * ; % % = 6 6 y y T m.`.+X&XT.u 7 Q &XqXqXwXrXuX].U.U.U.U.N.u.l.h./ 0 4 c *.s.3.3.j.Q f % % % % .                   ",
"    p 8 $ % * * % % = 7 7 d d t W V.+X+XT.N 6 n T.[.9X9XtXT.! v V G 4.N.N.x.p.W r < n 0.s.3.j.j.W g ; # # % # .           O - - ",
"    e ; % % % * % * ; 6 2 Y Y 2 Z Q (.&X`.T < 7 x ^ T.6X9XB.u 4 5 k w.N.n.w.S t 6 < S s.s.s.j.i.F s : @ . . > p % % O O O O O O ",
"  a e % % # O % % = < 7 y Y d t g , $._.&X7.y 7 7 2 x / a._ u 7 ; 5 F P S i 7 6 = 1 E s.s.3.j.%.5 - % o X X > ( a # % O o o o o ",
"  e 6 % . % % * * ; r 6 y Y y r y % 2 V._.j.t y 7 7 1 2 z B d 7 4 5 7 7 1 4 6 ; = i *.s.s.s.j.! # . X + O O # 9 D h - % O O o o ",
"e 8 * $ . $ * * % * 6 6 d d 6 : = % # n (.T.A t r r r y t Z y 5 4 4 7 8 = = = = , n p.s.3.3.i.C . X X O X + O O * g p - O O o o ",
"6 ; = & * * * ; % ; 6 6 d y = ; : % # $ B._.p.u t y d y t t 7 ; < 4 8 7 = & & = 3 $.s.s.3.q.6.q . . + + X X O % * % h D & + o X ",
"; p a 8 : = ; ; * 6 : r f e % ; : $ X @ ! _.(.7.z t y r 6 6 4 < & 4 4 8 6 = & 1 E -.p.3.>.>.X.c @ . O O O O O % % % p ) f % o X ",
"r g s 6 = * = * ; : 6 a a : X = 6 % . @ k !.oX!.p.x 2 < r 6 r 4 4 ; 4 4 4 & 1 J q.-.q.s.-.&.@.A # X X O O O X X o o @ a ( 8 o @ ",
"    * % * * * * : ; ; s r * X = 4 % # % , n.*X/.(.B.x 1 6 7 ; = 8 ; 4 & $ 3 J *.q.-.q.-.-.-.9.H & X X o + + o + o @ @ % D U & o ",
"    = * * * = : ; = 6 s : % % ; ; % % & , *.=X&X`.(.T.$.n 2 = = & , , 1 x / *.-.q.-.-.<.:.,.=.I 7 O O O X + o . . . @ @ e ) f . ",
"  = = = * = = ; : = r r = X % = * & & = 3 9.*X1X@X`.(.(.T.p./ n k N H ~ 7.-.-.-.-.q.<.r.d.k.*.S 9 % O O + o X . . . . @ & Y ( 4 ",
"; ; 4 ; = ; : : ; = r = # # # ; ; & ; $ n R.+X<X>X+X`./.E.R.V.x.q.O.O.#.=.=.=.=.=.r.y.l.u.y.K C 7 % O O . . . . . . o O % f ' Y ",
"r g d r 6 ; 6 : = ; ; % X % * = & & < , H x.+X<X2X>X+X`.E.H.c.:.| { O.+.&.=.&.=.y.u.u.z.g.4.G ' Z - O O O + . O . o @ % & 7 ) ` ",
"7 D Y r 6 ; : = * * & & % * ; * & 4 1 B $.3.@X<X>X2X<X+X/.E.c.2.{ { } 2.+.} +.,.u.A.z.l.4.b ! ' ` w % O X o X X X X O & = 4 D ` ",
"  2 Y Y : 6 ; * = * * * * ; : = ; & 5 D B.s.R.<X<X<X2X>X+XW.S.1.} } } | | 2.u.A.A.A.z.u.K b _ H ' a % & % X X X % # % & 4 8 B ` "
};
