/* XPM */
static char *_2e1a8d60b0b4beefb94cf2b82d4180blrcHhgUjCJr7sN9Y[] = {
/* columns rows colors chars-per-pixel */
"64 64 238 2 ",
"   c None",
".  c #CFBF45",
"X  c #D5B644",
"o  c #D9B645",
"O  c #D5BA45",
"+  c #DBBC44",
"@  c #D7B74E",
"#  c #DCB54B",
"$  c #D4BB4D",
"%  c #DABC4C",
"&  c #CFB854",
"*  c #D6B652",
"=  c #DBB654",
"-  c #D5BC53",
";  c #DBBD54",
":  c #D5BC5B",
">  c #DCBD5C",
",  c #D9B35A",
"<  c #E2BA4B",
"1  c #E2B44C",
"2  c #E2BD54",
"3  c #E2BD5B",
"4  c #D5BC62",
"5  c #DCBD63",
"6  c #DCBB6C",
"7  c #DFB767",
"8  c #E2BE61",
"9  c #E3BE6C",
"0  c #E7BB77",
"q  c #D6C146",
"w  c #D4C44A",
"e  c #DCC24C",
"r  c #DEC94D",
"t  c #DDC146",
"y  c #D6C254",
"u  c #DBC354",
"i  c #DDCC55",
"p  c #D5C35C",
"a  c #DCC35C",
"s  c #D6CB5D",
"d  c #DCCB5C",
"f  c #D6C956",
"g  c #DCD157",
"h  c #DDD15E",
"j  c #E2C34B",
"k  c #E4CA4E",
"l  c #E8C84D",
"z  c #E2C453",
"x  c #E9C657",
"c  c #E4CB55",
"v  c #EACC55",
"b  c #E2C55C",
"n  c #EAC65C",
"m  c #E4CB5C",
"M  c #EACB5C",
"N  c #E5D255",
"B  c #E9D055",
"V  c #E5D15C",
"C  c #E9D25D",
"Z  c #E2D859",
"A  c #CFC96C",
"S  c #D5C463",
"D  c #DBC464",
"F  c #D4CB63",
"G  c #DCCB64",
"H  c #D6C469",
"J  c #DCC46B",
"K  c #D6CD6B",
"L  c #DDCB6B",
"P  c #DED365",
"I  c #DDD36D",
"U  c #D7D16D",
"Y  c #DCC572",
"T  c #D6CD73",
"R  c #DCCB73",
"E  c #DDC479",
"W  c #DDCB7B",
"Q  c #D3CB76",
"!  c #DDD375",
"~  c #DDD27B",
"^  c #DDDA7E",
"/  c #DFD873",
"(  c #E3C463",
")  c #E9C663",
"_  c #E4CB64",
"`  c #EACC64",
"'  c #E2C56C",
"]  c #E9C56C",
"[  c #E3CC6C",
"{  c #EACD6B",
"}  c #F1CD6C",
"|  c #E4D264",
" . c #EAD163",
".. c #E5DA65",
"X. c #E4D36B",
"o. c #EAD26B",
"O. c #E5D96C",
"+. c #F1D26B",
"@. c #F0D067",
"#. c #E2C572",
"$. c #E9C674",
"%. c #E3CC73",
"&. c #EACD75",
"*. c #E3C57B",
"=. c #E3CC7B",
"-. c #EACD7B",
";. c #F0CA70",
":. c #E4D373",
">. c #EBD374",
",. c #E4D973",
"<. c #EADA75",
"1. c #E5D37C",
"2. c #EBD47B",
"3. c #E4D97B",
"4. c #EBDA7C",
"5. c #F1D376",
"6. c #F1D57C",
"7. c #F0DA7D",
"8. c #DCC685",
"9. c #DDCC83",
"0. c #DCC988",
"q. c #DDD382",
"w. c #DCDB83",
"e. c #DFDC89",
"r. c #DFD28B",
"t. c #DDD195",
"y. c #E2C684",
"u. c #E4CD83",
"i. c #E9CE83",
"p. c #E4CE8B",
"a. c #EBCE8B",
"s. c #E4C588",
"d. c #F0CF8E",
"f. c #F0CA88",
"g. c #E4D383",
"h. c #EAD483",
"j. c #E4DB83",
"k. c #EBDA84",
"l. c #E4D38B",
"z. c #EBD48B",
"x. c #E5DA8B",
"c. c #EBDB8C",
"v. c #F1D584",
"b. c #F2DB85",
"n. c #F1D58B",
"m. c #F2DB8C",
"M. c #E5CE93",
"N. c #E4CF99",
"B. c #ECCD97",
"V. c #E5D493",
"C. c #EBD493",
"Z. c #E5DA94",
"A. c #ECDC93",
"S. c #E4D49A",
"D. c #EBD59B",
"F. c #E6DB9B",
"G. c #ECDC9C",
"H. c #F2D694",
"J. c #F2DC94",
"K. c #F1D39E",
"L. c #F2DC9C",
"P. c #F9DE9E",
"I. c #EBE18C",
"U. c #E8E284",
"Y. c #F0E08A",
"T. c #E6E293",
"R. c #ECE294",
"E. c #ECE29A",
"W. c #EBE898",
"Q. c #F1E294",
"!. c #F2E29B",
"~. c #F0EB9A",
"^. c #E6D7A2",
"/. c #E6DCA2",
"(. c #ECDCA4",
"). c #EBDCAB",
"_. c #ECD7A8",
"`. c #F3DCA3",
"'. c #F3D4AC",
"]. c #F3DCAC",
"[. c #F9DCA9",
"{. c #EDDEB3",
"}. c #E6DDB5",
"|. c #F2DBB3",
" X c #F1DEB9",
".X c #ECE2A3",
"XX c #EEE9A3",
"oX c #E6E6AB",
"OX c #EDE3AC",
"+X c #ECE9AB",
"@X c #E7E0A1",
"#X c #F2E3A4",
"$X c #F4EAA3",
"%X c #F3E3AB",
"&X c #F9E2AE",
"*X c #F4EBAC",
"=X c #FBE9AC",
"-X c #F8E5A2",
";X c #E6E4B5",
":X c #EDE4B3",
">X c #ECEAB3",
",X c #E7E4BE",
"<X c #EEE5BC",
"1X c #EDEBBA",
"2X c #F3E4B4",
"3X c #F3EAB4",
"4X c #F4E4BB",
"5X c #F3EBBC",
"6X c #FAE9BC",
"7X c #F9E6B7",
"8X c #F1F1BD",
"9X c #EEECC3",
"0X c #E8E8C2",
"qX c #F4E5C3",
"wX c #FAE4C6",
"eX c #F4EBC4",
"rX c #FAEBC3",
"tX c #F4ECCB",
"yX c #FAEDCB",
"uX c #F6E4C9",
"iX c #EFF2C7",
"pX c #FAF2C4",
"aX c #F5F3CB",
"sX c #F9F3CD",
"dX c #F3F5C3",
"fX c #F0EDD2",
"gX c #FAEED4",
"hX c #EFF0DC",
"jX c #F3F3D2",
"kX c #F9F0D3",
"lX c #F7F1DC",
"zX c #FBF3D9",
"xX c #FEFADA",
"cX c #FAF9D7",
"vX c #EDF6E0",
"bX c #FDF2E1",
"nX c #F5FBE1",
"mX c #F6F0E0",
/* pixels */
"      rXp.N.4X9X  iXjX      uX@XQ @XaX    eX5X        c.x.gXfXrXwX    sXsXjX>Xg./.sXzX    kX    sXpX-Xc.6X    yXsXdXkX    5X~ R.",
"p.a.p.p.: ( B.u.l.z.a.d.a.l.z.%.> -.C.z.C.z.n.z.z.z.D.` ] C.(.n.J.A.c.L.G.A.2._ 2.J.G.G.A.!.L.G.L.Q.<.` A.E.J.L.!.E.`.L.Q.c._  .",
"      oXW l.                  I G D.                  z.x.A.                g.X.c.                  Z.4.R.                j.:.A.",
"*.' E q.2 D 1.%.=.u.=.W u.=.:.%.; -.u.~ u.~ g.-.q.g.1.&.{ 4.2.g.g.g.h.g.z.g.2.v +.2.<.7.3.z.c.k.z.m.<.>.k.j.b.k.4.4.4.b.4.,.{ { ",
"l.(.).S.=.u.^.Z.Z.G.F.Z.Z.F.G.M.R Z.:X(.G.F.A.A.F.E..Xz.g.(.L.R.E.G.E.G..XE.c.X.C.@XE.L.XX#XE.E.OX].c.j.*XOX#X-X.XG.E.~.!.T.:.k.",
"> 0.p.%.H W y.Y S G ' S S L R ' a g.S.S L [ L T %.' d %.-.c.F Y &.[ T :.[ L ~ X.z.T :.2.W L <.o.I :.c.,.R.c.z.=.:.2.O.P ! 2._ 2.",
"J J $ # p a % y E D % D W y u ' ] % 5 L J ; L =.D u [ -.3 _ P _ x %.W m ) 1.:.l ) :.V k :.1.{ m :.<.M o.4. .B  .O.m C 4.:.v ` -.",
"OX9X=.J {.D.S W qXa.S /.eXR =.  ).a M.  A.( G.uX=.[ 1X3XG z.8Xk.b ].3X3.g.rX+X_ g.  1.| 7XrXh.1.6X5XX.x.gXJ.,.Q.  <.c.yX%X_ A.sX",
"5X  p.L gX.XR Y   C.H Z.  T &.  ,Xd J.  L.L     =.=.    ! L.    d     j.l.    2.c.  ,.:.uX  k.x.zX5X,.j.  k.1.%X  j.A.    _ %X  ",
"V._.J S _.i.p Y ^.u.a V.D.D ' (.F.D -._.i.D z.G.L ' ].z.L g.`.g.d V.(.:.%.`.A.[ h.OX<._ `.#X5.2.OX!.o.1.&Xj.>.!.!.X.4.].G.` z.2X",
"5 > X X 5 D ; ( 5 ; $ : J w D G u < ; J ' D G _ u % ] ] z G X.( 2 [ ! _ M { [ z c ,.{ ` :.:.n M X.:.o.X.2.| M  .>.C { 1.X.M _ &.",
"s.i.a y g.W 1.p.V.' u D 1.j.l.q.=.2 [ h.u.x.g.1.G m &.h.k.j.h.&.z c.x.k.b.h.1.m | j.c.m.x.c.o.o.m.I.R.I..X2. .>.k.Q.m.I.j.` 2.z.",
"    E H 6X      bXV.D i.        OXD z.          W '           A.d %X          %.2.        6X3.1.pX      zXJ.o.J.        *X[ G.  ",
"l.=.p - =.g.g.g.l.D - R g.g.l.g.&.y G 1.x.l.z.1.J b :.l.V.k.k.%.d 1.k.C.Z.A.:.m [ x.A.c.T.k.X._ k.A.A.A.R.2.o.2.R.c.L.R.3._ :.c.",
"5 Y =.i.E R =.=.+ + J - X.u.=.[ [ l.l._ e 8 D %.z.z.:.-.h.2.i ( *.z m c.h.<.2.c.n.=.m M X.3.A.H.5.4.c.h.N X.2.M 4.b.m.2.4.J.j.>.",
"S N.u.l.}.                    5XA.l.D.g.a n R Z.z.C.;X                    1X(.A.G.c.V _ h.G.c./.6XpX                    J.L.(.n.",
"y 5 Y p u.                  pX{.*.:.=.u Z.OXJ D L _ x.rX                  2X1.4.=._ m.4X>.@.2.1.R.                    &X:.2.-.) ",
"=.5   ].; : S p.        oXE b a W jX{.Y eX  ( (   a.b D s A.          :.d m 6.yX|.2.    I.j.  2XL :.O.R.        +Xg. . .,.  :.{ ",
"C.E   {.a W S.L         l.Y D.W %.  ^.=.gX  { '   l._ G.1.[ OX      G.,.x.2.k.  +Xk.    Q.A.  =XX.k.>.4.        3.k.=X>.:.  g.2.",
"S.J   V.=.  9Xp S W =.8.G Y   G.'     :.tX  a S   I z.    [ ! q.g.g.I c.    :.  :X2.    L.+.  !.k.    o.:.z.c.h.:.m.  #X2.  n.h.",
"W q.  F G   x.8 =.> u J a 9     W ,X%X=.4X  L g.  g.(.  -.] 2.[ m { ) :.    { 2XwX:.    c.    2.2.  #X>.c.2.>.b.5.5.    >.eX.X:.",
"D /.).H     H l.  -.' ).  *.).  0.~ eX=.D.  3.OX2XK OX4Xg.x.  A.X.    3.1.yXA.3.*Xh.c.  3.A.4X,.    2.x.lXA.7.rX7Xn.~.  2.z.tX! ",
"y K.Y Q   l.g.    T u M.    L x.2Xd K.1.L g.=.(.%.G.rX3.e.  uX-.c #X  G.:.#XrXR G.z.h.#X:.`.v.j.  I.U.dX<XX.| A.    v.!.8Xh.Q.c.",
"* 6 Y Z.A U     u.D #.'     @X' C.3.a ( a e #.5 _ [.%.~ fX  R _ 2.l.OXjXL.[ A.c.=.{ m V X.%.>.(./ I.  7X>.O.4.6.6X  |.>.E.Z.{ 5.",
", X - > J ).{.G y (.wX:.J Z.|.'.G D b ; % j ; z u D p.]..XO.b ).tXg.{ G.:XJ.I { b c M ) m k I o.k..X  c.O.*XsXC.j.Q.eX`.@.| _ j ",
"& X # 1 ] *.J =.L g.      U G R D % 3 q u = t x a u 1.I W 1.[ A.    `.h.~ 3.P b n i c ) k v i M 4./ j.Z.j.I.    *X,.g.2.{ ` c c ",
"$ @ & p E g.). XK.3 =.    eX^.G ; u y 2 u 3 y 2 u ' %.z.3XqXF.%.&.F.9X5X@X>.z m x d M z | ] c O.n.J.5XsX#X{ k.+XpX  z.o.M _ ) M ",
"* X @ 5 a D J D D = % y : Y ' S > e $ a j > u e d ' ' %.&.[ ' z z b L :.[ _ z m _ c m _ m _ V | h.>.2.<.>.C v  .X.| 2.{ N c c n ",
"& D ; $ m y p . W E > J 4 & J l.u.; $.' y Y J c.( z r G _ h =.%.c :.L | %.%.m m =.c.[ ( 1.J.} ` Z.x.=.| A.<.` k.<.N X.P >.` :.>.",
"    9.H 2X      bXV.y ~         OXu z.          R '           A.d 2X          L j.xX      tX2.<.iX        k.X.4X        =XX.G.  ",
")./.4 p D.).OX:XG.' > u.).:X;X_.a.u =.(. X%X.XG.L J G.(.OX:X(.o.e c.{.<X2X.XC.L O.%X,X5X3X.X:.X.].3X1XrX%XO.c J.      %X!.G &.].",
"* ; # = > : * - y 1 < 2 ; u y ; 8 < u u 2 u u d u j b b b ( _ 3 2 x d b b _ ) n M | d c c _ v c { | m m V ` @.C | i N m  ._ n ` ",
"=.z.J S '.c.; 5   L p =.  D ' %X/.u =.a.-.a [   L ( h.G.G :.|.c.i A.n.[ [   :._ :.  X.| C.G.>.>..XY.o.o.  3.| 4.  >.,.c.#Xh m   ",
"fX  a.Y hX%XJ E   D.Y (.  W g.xXeXa C.  ).R     3.=.  rX' E.  OXP 1X  c.,.    X.R.  1.1.uX  c.x.mX*X3.x.  J.4.    2.A.    _ k.  ",
"{.oXY 9 4XC.> G   9.D k.  _ %.%X2X> a.|.c.J i.  W =.4X XJ c.5XA.b &XOXg.-.  H.' V.  :._ E.%Xg.2.wX%X:.2.  H.4.c.  >.4.=X  B R.  ",
"S p O ; 6 Y 3 D Y a J G #.3 8 G F e b L G 3 _ L r y R &.( X.! [ M =.! L { >.X.N _ :.` m X.o.) V ,.2.` o.h.:.<...k.>.{ h.>.M L ,.",
"# @ 5 C.t.S - =.Z.    N.z.Y ; p c.C.( - e e ; > _ J.q.L b } z.      c.%.' | A.c._ ( x k m m 5.`.x.Z o.b.!.    R.P.2...! (.J.C c ",
"o = = u.1X5XY J l.      g.T Q   &XW y e ) %.a 3 a l.    C.o.`.      C.,..X  `.h.c ) X.>._ m ` `.4X  x.1.$X    yXc.:.~.pXqXj.m ) ",
"y = 5 J J {.  F.u.F.  y.%..X  OXR L r 8 $./.L u a %.c.    @X:.OX  L.c W.  .Xj.1.m c c.7X-.| V >.:.    R.h.3XcXQ.k.~.sX&X=.3._ ` ",
"' J H   ; %.    9.L V.W V.    G ^.2X( #.%.  h.>.q.|.i.~     /.! L.1.%X  g.g.4.].,.>.L.rXh.h.:.rXR.3.    k.j.c.2.%X    ..Q.3X%.2.",
"J l.u     %X    {.D a W           :XE k.1.2Xh.A.T wXxX5X      | m g.    tX5XcX#X:.J.J.  j.Q.X.aX  *X    ~.:.o.I.          >X2.#X",
"W  X' ).        }.L # a.          ~ =.@XW l.A.4XY #X          ' z p.          c.u.4Xx.x.! =X1.OX        -X5.} L.          4.4.5X",
"OXqXD 5 W J l.g.J e 3 d 9.k.p.' W D i.5XC.J F.  a J H :.J.k.l.i v G :.c.m.:.R _ {   Z.:.G.  >.X.k.j.L.A.,.V +.>.k.m.A.<.k.{ c.sX",
"nX^ p 7 u D y y > + * $ D 5 ; u Y 6 (   2X[   5Xb G G d ( G d e z u G L b _ L [ {   z.o.kX<X`  .| {  .>...g  . .o. . ...V o.X.  ",
"hXD.> ).eXp.= J (.' 5 *.`.H ; D.eXG.e .X3X] (..X( `.6XJ.G [ [.=.m a.].[ G L.rXG.-.$Xn.{ aXOX{ &X6XJ.C :.&X6.` b.*X:.>.`.eXE. .`.",
"0X=.* g.x.J - J V.D * L G.P = C.).>.+ D.eX/.9X1.; z.D.C.a ' L.{ r =.G.{ _ V.F.h.` A.5XL.eXg.v n.  k.C 2.`.>.N 4.$Xo._ 2.+X3.M J.",
"9.: , * > 6 D = Y %.D - ; = y D u $ D #.].tX^.d b u f _ k y L [ %._ n m c z m m c ! :XyXL._ | d :.3.Z | 4.6.<.X.{ { O._ _ m ` &.",
"H V.F.F W |.    ).=.' ] &.V.V.#.e Y 2Xl.J %.F S.{.G h.      OX=.=.J b A.G.;.n &.%Xx.X.:.{ z.$X>.H.wX    $Xv.n.3...x.!.o.v h.+Xg.",
"_.  x.w y ' y u.=.H p.  sX9Xa.8 % a /.fXD.u G.gXZ.b Y I l.`.1.:..X    <Xk.m a m R.  c.m n.  .XX.` 4.  z.3.j.2X      I...l [ %X  ",
"u.y.5 , 0 f.R S > C.    ~ D ' l.%.2 5 E g.e B.C.f u =.h.g.] _ %X    c.:.1.C.i._ g :.i.m h.z.5.` O.L.n. .| OX    ^ 4.c.L.h.m o.j.",
"+ = & G S N.}.9.- D f.' L   3XZ.H ) z > b q y b a %.' k.rXg.e 1.C.=.A.    n.X.2._ m V d _ M M >.:.A.rXm.V g.A.3.j.*XyXJ.,.1.[ c ",
"> 5 > d.V.S 9.(.S + 4 J     l.a /.A.D m ; ' u $.( c.a.L l.%XL u m z.    J.L T.c.&.>.m %.m o.:.`.2XX.L.3X,.c +.c.    4.2.A.I. .-.",
"D p.V.J G.  a a.].Y ; Y   F.=.|.;X9 K.j.L |.L D.D.L :X2X' A. X%.y G.  .X5.%X4X&.G.E.2.+X>.L.E.2.qX>X<.G.9X>.{ 2X  c.k.eX5X,..XL.",
"p.W qXT w   Z.J (.p.; s.`.D (.  #.i.tXg.1.  d :.sX1.g.  F.~ [.z.r C..X~     c.l.eX1.#X  J.b.aX1.&.  =X>.6Xh.C J.&X4.%X  3.x.zXg.",
"(.H   /.J     W L y + ( ( a   tX-.%X,X*.`.  >._ sX=.'     G ) _ c ' [ h.    [ OXsX-.      2.  !.6.    4.O.N V >. .5.  sX2.9X3X%.",
"  5     ' u.  S.O + D > $ p.  a.$.    =.6X  L.[ OX5X=.OX  :.z d L d z L.  c.5.  3X2.      >.    o.Q.  !.v { 2.C V b.  #X2.  `.&.",
"  4     =.Y (.z.@ =./.g.; u.L.5 '     ' 5X  G.G #XnX1.i.L.4.a c.5Xj.z z.%X1.2.  4X1.      o.    3.<.3XA.M c.&Xm.X.c.#X>.o.  m.&.",
"  -     L $ 4 > $ D.  V.@ y D y =.  ^.' 2X  t.G P.aX:.; ) a d b.  g.z L [ b 1.  4X:.T.    X.    x.v 2. .c $X  !.M X.{ ` X.  J. .",
"u.% J l.= 5 E a a 6 g.a ; V.u.D D g.=.z C.pXg.u 1.k.( _ z.V.[ ' z._ M A./._ ` A.1.c A.tXc.m h.m.| o.k.:.C >.m.o.o.L.c.o.X.A.2.c ",
"; # , : $ 9.    u.> :.w i.    u.@ u $ + ; G ) 2 u ; y h.6X  g._ j.m ,.sXlX2.k f d x o.1.{ m m m c j.    A.>.n.X.I.    <.v P c _ ",
"@ * =.~ $ H ).  ~ W K.E l.1XZ.D b J.C.J ; a ; ( A.g.a L j.  :.h.6X[ z.yX@XD _ A.J.` M N B o.A.H.` | E.rXZ.U.2Xc.b.aXXXV { `.c.` ",
"J >     ' % J > = [ s.( : D D % ~   ).L &.V._ ' uX  z ) Y F b -.x.W [ ' M c A.    X.1.E.1.:.    g.B 2.5.o.n.k.4.` >.| ` -.  oX[ ",
"l.; p.|.-.6 u.u w w.0.  G.i.2 % W OXF.a Z.  [ a (.2X[ ] >.[ { h.    C.n.` b g.7Xj.L 3X  `.| A..X4.+.H.<.| J.    1Xb._ { -.:XI._ ",
"l.* D p $ 6 Y D C.      9Xp.J ) 2 F a ; G.lXV.r d W s J 2.s z.        w.1.{ _ :.G ( #XxX(.n [ h.{ { j.o.!.      6Xc.l.>.B ,.&.M "
};
